# xmcd CD database file
#
# Track frame offsets:
#	150
#	23314
#	51323
#	69039
#	79558
#	107235
#	133559
#	154490
#	181116
#
# Disc length: 2724 seconds
#
# Revision: 0
# Processed by: cddbd v1.5PL3 Copyright (c) Steve Scherf et al.
# Submitted via: CDex 1.50beta9
#
DISCID=650aa209
DTITLE=Kinga Gorny - I Wish You Love
DYEAR=2001
DGENRE=Jazz
TTITLE0=My Foolish Heart
TTITLE1=Just Friends
TTITLE2=Meditation
TTITLE3=The Song is You
TTITLE4=Once I Loved
TTITLE5=Blue Skies
TTITLE6=Desafinado
TTITLE7=Gee Baby (ain't I good to you)
TTITLE8=I Wish You Love
EXTD=YEAR: 2001
EXTT0=
EXTT1=
EXTT2=
EXTT3=
EXTT4=
EXTT5=
EXTT6=
EXTT7=
EXTT8=
PLAYORDER=
